<svg width="30" height="30" viewBox="0 0 80 76" fill="none" xmlns="http://www.w3.org/2000/svg">
    <path d="M40.9511 4.63525L47.4745 24.7123C48.4116 27.5964 51.0993 29.5491 54.1319 29.5491H75.2421C76.2108 29.5491 76.6136 30.7888 75.8299 31.3582L58.7514 43.7664C56.2979 45.549 55.2713 48.7085 56.2085 51.5927L62.7319 71.6697C63.0312 72.591 61.9768 73.3571 61.193 72.7877L44.1145 60.3794C41.6611 58.5969 38.3389 58.5969 35.8855 60.3794L18.807 72.7877C18.0233 73.3571 16.9688 72.591 17.2681 71.6697L23.7915 51.5927C24.7287 48.7085 23.7021 45.549 21.2486 43.7664L4.17012 31.3582C3.38641 30.7888 3.78917 29.5491 4.75791 29.5491H25.8681C28.9007 29.5491 31.5884 27.5964 32.5255 24.7123L39.0489 4.63525C39.3483 3.71395 40.6517 3.71393 40.9511 4.63525Z" stroke="black" stroke-width="6"/>
</svg>
